<?xml version="1.0" encoding="utf-8"?>
<!-- Generator: Adobe Adobe Illustrator 29.2.0, SVG Export Plug-In . SVG Version: 6.00 Build 0)  -->
<svg version="1.1"
	 id="Logo_MainFields" xmlns:sodipodi="http://sodipodi.sourceforge.net/DTD/sodipodi-0.dtd" xmlns:inkscape="http://www.inkscape.org/namespaces/inkscape" xmlns:svg="http://www.w3.org/2000/svg" inkscape:version="1.3.2 (091e20e, 2023-11-25, custom)" sodipodi:docname="MainFields-Logo-Compleet-3.3.svg"
	 xmlns="http://www.w3.org/2000/svg" xmlns:xlink="http://www.w3.org/1999/xlink" x="0px" y="0px" width="500px" height="252px"
	 viewBox="0 0 500 252" style="enable-background:new 0 0 500 252;" xml:space="preserve">
<style type="text/css">
	.st0{fill:#029E94;}
	.st1{fill:#595959;}
	.st2{fill:#FC21D4;}
</style>
<g id="MainFields" inkscape:groupmode="layer" inkscape:label="Layer 1">
	<g id="g13" transform="matrix(2.3802787,0,0,2.3537047,46.144485,160.97741)">
		<g id="g12">
			<path id="path60" inkscape:label="s" class="st0" d="M170.8,15.5L170.8,15.5c0.3,0.1,0.8,0.3,1.6,0.6c0.7,0.3,1.5,0.7,2.3,1.2
				c0.8,0.5,1.5,1.2,2,1.9c0.6,0.8,0.9,1.7,0.9,2.7l0,0c0,0.9-0.2,1.8-0.5,2.5c-0.3,0.8-0.7,1.4-1.3,2s-1.3,1-2.1,1.4
				c-0.8,0.3-1.8,0.5-2.9,0.5l0,0c-1.6,0-3.1-0.3-4.5-0.9c-1.4-0.6-2.5-1.3-3.3-2.1l0,0l3.3-3.3c0.7,0.8,1.4,1.3,2.2,1.6
				c0.8,0.2,1.4,0.4,2,0.4l0,0c0.8,0,1.4-0.2,1.8-0.5c0.4-0.3,0.6-0.7,0.6-1.2l0,0c0-0.3-0.1-0.6-0.4-0.8c-0.3-0.2-0.6-0.4-0.9-0.6
				c-0.4-0.2-0.7-0.3-1.1-0.4c-0.4-0.1-0.7-0.2-0.9-0.2l0,0c-0.3-0.1-0.8-0.3-1.6-0.6c-0.8-0.3-1.5-0.6-2.3-1.1s-1.5-1.1-2-1.9
				c-0.6-0.8-0.9-1.7-0.9-2.8l0,0c0-1.1,0.2-2.1,0.6-2.9c0.4-0.8,0.9-1.5,1.5-2s1.4-0.9,2.2-1.2c0.8-0.3,1.7-0.4,2.5-0.4l0,0
				c1.3,0,2.5,0.2,3.4,0.5c0.9,0.3,1.7,0.7,2.3,1l0,0c0.7,0.4,1.3,0.9,1.8,1.5l0,0l-3.3,3.3c-0.5-0.7-1.1-1.2-1.7-1.5
				c-0.6-0.3-1.3-0.5-2-0.5l0,0c-0.6,0-1.1,0.1-1.6,0.4c-0.5,0.3-0.8,0.7-0.8,1.3l0,0c0,0.3,0.1,0.6,0.4,0.8
				c0.2,0.2,0.5,0.4,0.9,0.6c0.3,0.1,0.7,0.3,1.1,0.4C170.2,15.3,170.5,15.4,170.8,15.5L170.8,15.5z"/>
			<path id="path59" inkscape:label="d" class="st0" d="M155.6,0h4.8v27.8h-4.8v-9.9c0-1.6-0.6-3-1.7-4l0,0c-1.1-1.1-2.4-1.7-4-1.7
				l0,0c-1.6,0-2.9,0.6-4,1.7l0,0c-1.1,1.1-1.7,2.5-1.7,4l0,0c0,1.6,0.6,2.9,1.7,4l0,0c0.5,0.6,1.1,1,1.8,1.2
				c0.7,0.3,1.4,0.4,2.2,0.4l0,0c0.8,0,1.5-0.1,2.1-0.4l0,0l1.7,4.2c-1.2,0.6-2.6,0.9-4.2,0.9l0,0c-1.5,0-2.8-0.3-4-0.8
				c-1.2-0.5-2.3-1.3-3.2-2.2c-0.9-1-1.6-2.1-2.1-3.3c-0.5-1.3-0.8-2.6-0.8-4l0,0c0-1.5,0.2-2.8,0.8-4.1c0.5-1.3,1.2-2.4,2.1-3.3
				c0.9-0.9,2-1.7,3.2-2.2c1.2-0.5,2.6-0.8,4-0.8l0,0c1.3,0,2.4,0.2,3.4,0.6c1,0.4,1.9,0.9,2.6,1.5l0,0V0z"/>
			<path id="path58" inkscape:label="l" class="st0" d="M137.3,27.8L137.3,27.8h-4.8V0h4.8V27.8z"/>
			<path id="path75" class="st0" d="M119.9,7.4c-1.5,0-2.8,0.3-4.1,0.8c-1.3,0.5-2.4,1.3-3.3,2.2c-0.9,1-1.7,2.1-2.2,3.3
				c-0.5,1.3-0.8,2.6-0.8,4.1c0,1.4,0.3,2.8,0.8,4c0.5,1.3,1.3,2.4,2.2,3.3c1,0.9,2.1,1.7,3.3,2.2c1.3,0.5,2.6,0.8,4.1,0.8
				c1.6,0,3-0.3,4.4-0.9c1.3-0.6,2.5-1.5,3.4-2.6l-4.9-2c-0.8,0.5-1.8,0.7-2.9,0.7c-0.8,0-1.5-0.1-2.2-0.4c-0.7-0.3-1.3-0.7-1.9-1.3
				c-0.5-0.5-0.9-1-1.2-1.6h10.4h5c0.2-0.7,0.3-1.5,0.3-2.4c0-1.5-0.3-2.8-0.8-4.1c-0.5-1.3-1.3-2.4-2.2-3.3
				c-0.9-0.9-2.1-1.7-3.3-2.2C122.7,7.7,121.4,7.4,119.9,7.4L119.9,7.4z M119.9,12.2c0.2,0,0.4,0,0.6,0c0.2,0,0.4,0,0.6,0.1
				c0.2,0,0.4,0.1,0.5,0.1c0.2,0.1,0.3,0.1,0.5,0.2c0.2,0.1,0.3,0.1,0.5,0.2c0.2,0.1,0.3,0.2,0.5,0.3c0.2,0.1,0.3,0.2,0.5,0.3
				c0.1,0.1,0.3,0.3,0.4,0.4c0.1,0.1,0.2,0.3,0.4,0.4c0.1,0.1,0.2,0.3,0.3,0.4c0.1,0.1,0.2,0.3,0.3,0.4c0.1,0.1,0.2,0.3,0.2,0.4
				h-10.4c0.1-0.2,0.1-0.3,0.2-0.4c0.1-0.1,0.2-0.3,0.3-0.4c0.1-0.1,0.2-0.3,0.3-0.4c0.1-0.1,0.2-0.3,0.4-0.4
				c0.1-0.1,0.3-0.3,0.4-0.4c0.2-0.1,0.3-0.2,0.5-0.3c0.2-0.1,0.3-0.2,0.5-0.3c0.2-0.1,0.3-0.2,0.5-0.2c0.2-0.1,0.3-0.1,0.5-0.2
				c0.2-0.1,0.4-0.1,0.5-0.1c0.2,0,0.4-0.1,0.5-0.1C119.5,12.2,119.7,12.2,119.9,12.2L119.9,12.2z"/>
			<path id="path55" inkscape:label="." class="st0" d="M102.5,4.8V0h4.8v4.7H102.5z"/>
			<path id="path54" inkscape:label="i" class="st0" d="M107.3,27.8h-4.8V8h4.8V27.8z"/>
			<path id="path53" inkscape:label="F" class="st0" d="M100.7,4.8L100.7,4.8H86.8v6.7h10.3l1.2,4.8H86.8v11.5h-4.8V0h18.7V4.8z"/>
			<path id="path52" inkscape:label="n" class="st1" d="M71.1,7.4L71.1,7.4c1.3,0,2.5,0.2,3.5,0.7c1.1,0.5,2,1.2,2.7,2
				c0.8,0.9,1.3,1.8,1.8,3c0.4,1.1,0.6,2.3,0.6,3.6l0,0v11H75v-11c0-1.3-0.5-2.4-1.4-3.3l0,0c-0.9-0.9-2-1.3-3.2-1.3l0,0
				c-1.3,0-2.4,0.4-3.3,1.3l0,0c-0.9,0.9-1.3,2-1.3,3.3l0,0v11h-4.7V8h4.7v1.5c0.7-0.6,1.5-1.1,2.4-1.5C69,7.6,70,7.4,71.1,7.4
				L71.1,7.4z"/>
			<path id="path51" inkscape:label="." class="st1" d="M53.6,4.8V0h4.8v4.7H53.6z"/>
			<path id="path50" inkscape:label="i" class="st1" d="M58.4,27.8h-4.8V8h4.8V27.8z"/>
			<path id="path49" inkscape:label="a" class="st1" d="M46.1,7.9h4.8v19.8h-4.8v-9.9c0-1.6-0.6-2.9-1.7-4l0,0
				c-1.1-1.1-2.5-1.7-4-1.7l0,0c-0.8,0-1.5,0.1-2.2,0.4c-0.7,0.3-1.3,0.7-1.8,1.2l0,0c-1.1,1.1-1.7,2.5-1.7,4l0,0
				c0,1.6,0.6,2.9,1.7,4l0,0c0.5,0.6,1.1,1,1.8,1.2c0.7,0.3,1.4,0.4,2.2,0.4l0,0c0.8,0,1.5-0.1,2.1-0.4l0,0l1.7,4.2
				C43,28,41.6,28.3,40,28.3l0,0c-1.5,0-2.8-0.3-4-0.8c-1.2-0.5-2.3-1.3-3.2-2.2c-0.9-1-1.6-2.1-2.1-3.3s-0.8-2.6-0.8-4l0,0
				c0-1.5,0.2-2.8,0.8-4.1s1.2-2.4,2.1-3.3c0.9-0.9,2-1.7,3.2-2.2c1.2-0.5,2.6-0.8,4-0.8l0,0c1.3,0,2.4,0.2,3.4,0.6
				c1,0.4,1.9,0.9,2.7,1.5l0,0L46.1,7.9z"/>
			<path id="path9-1" inkscape:label="M" class="st1" d="M22.6,0L22.6,0h5.2v27.7H23V8.1l-9.1,14.1L4.7,8.1v19.6H0V0h5.2l8.7,13.5
				L22.6,0z"/>
		</g>
	</g>
</g>
<g id="Logo">
	<g id="path7" inkscape:label="binnen midden rechts">
		<polygon class="st2" points="253.6,83.6 253.6,104.4 271.7,94.4 271.7,73.6 		"/>
		<path class="st2" d="M270.7,75.3v18.5l-16,8.8V84.2L270.7,75.3 M271.7,73.6l-18,9.9v20.8l18-9.9V73.6L271.7,73.6z"/>
	</g>
	<path id="path5" inkscape:label="midden boven" class="st2" d="M233.2,68l17.1,10l16.6-10.3l-16.6-9.4"/>
	<path id="path6" inkscape:label="binnen midden links" class="st2" d="M229.1,94.4l17.6,9.5V83.4l-17.6-10.3"/>
	<path id="path1" inkscape:label="boven links" class="st0" d="M200.5,49.1l26.1,15l20.1-11.4l-0.1-31"/>
	<path id="path4" inkscape:label="buiten rechts" class="st0" d="M278,71.1v24.1l25.4,13.5L303.3,56"/>
	<path id="path8" inkscape:label="links onder" class="st0" d="M200.6,115.6l46.1,25.4v-29.5l-19.9-11.2"/>
	<path id="path3" inkscape:label="buiten links" class="st1" d="M197.6,108.8L223,94.6V70.5L197.6,56"/>
	<path id="path2" inkscape:label="boven rechts" class="st1" d="M253.6,52.5L274.5,64l25.1-14.8l-45.9-27.5"/>
	<path id="path2_00000021812399863433979780000000255696729341406137_" inkscape:label="boven rechts" class="st1" d="M273.7,100.5
		l-20.1,11l0.1,29.5l46.9-25.3"/>
</g>
</svg>
